<?xml version="1.0" encoding="utf-8"?>
<!-- Generator: Adobe Illustrator 16.0.0, SVG Export Plug-In . SVG Version: 6.00 Build 0)  -->
<!DOCTYPE svg PUBLIC "-//W3C//DTD SVG 1.1//EN" "http://www.w3.org/Graphics/SVG/1.1/DTD/svg11.dtd">
<svg version="1.1" xmlns="http://www.w3.org/2000/svg" xmlns:xlink="http://www.w3.org/1999/xlink" x="0px" y="0px" width="32px"
	 height="32px" viewBox="0 0 32 32" enable-background="new 0 0 32 32" xml:space="preserve">
<g id="Background" display="none">
	<rect x="-253" y="-31" display="inline" fill="#363636" width="658" height="97"/>
</g>
<g id="Layer_1">
	<g>
		<g>
			<path fill="none" stroke="#F2F2F2" stroke-miterlimit="10" d="M19.264,5.743c5.665,2.457,8.267,9.039,5.81,14.705
				c-2.457,5.666-9.04,8.267-14.705,5.81"/>
			<line fill="none" stroke="#F2F2F2" stroke-miterlimit="10" x1="11.147" y1="24.464" x2="9.181" y2="29"/>
			<line fill="none" stroke="#F2F2F2" stroke-miterlimit="10" x1="20.453" y1="3" x2="18.458" y2="7.603"/>
		</g>
		<g>
			<line fill="none" stroke="#549DD7" stroke-miterlimit="10" x1="18.457" y1="7.604" x2="11.177" y2="24.396"/>
			<circle fill="none" stroke="#549DD7" stroke-miterlimit="10" cx="14.817" cy="16" r="9.36"/>
			
				<ellipse transform="matrix(0.9175 0.3978 -0.3978 0.9175 7.5871 -4.5735)" fill="none" stroke="#549DD7" stroke-miterlimit="10" cx="14.817" cy="16" rx="4.68" ry="9.36"/>
			<path fill="none" stroke="#549DD7" stroke-miterlimit="10" d="M23.94,13.91c-2.023,0.384-4.837-0.02-7.675-1.25
				c-2.837-1.23-5.055-3.01-6.159-4.748"/>
			<path fill="none" stroke="#549DD7" stroke-miterlimit="10" d="M5.692,18.089c2.023-0.383,4.838,0.021,7.677,1.251
				c2.839,1.231,5.058,3.011,6.161,4.751"/>
			<line fill="none" stroke="#549DD7" stroke-miterlimit="10" x1="6.229" y1="12.277" x2="23.404" y2="19.724"/>
		</g>
	</g>
</g>
</svg>
