<?xml version="1.0" encoding="utf-8"?><svg width="96" height="32">
<!--This file was automatically generated by BCGSoft ribbon/toolbar designer-->
<svg xmlns="http://www.w3.org/2000/svg" width="16" height="16" viewBox="0 0 16 16" x="0" y="0">
  <title>View1</title>
  <g id="BCG-largeIcons">
    <g id="View1">
      <g>
        <rect x="1.5" y="1.5" width="13" height="13" style="fill: #fff"/>
        <path d="M14,2V14H2V2H14m1-1H1V15H15V1Z" style="fill: #4a7db1"/>
      </g>
      <rect x="1" y="1" width="14" height="4" style="fill: #4a7db1"/>
      <path d="M5.83,11.75H7.62V7.9H6.15v-1A4.6,4.6,0,0,0,8,6.33H9.17v5.42h1.52V13H5.83Z" style="fill: #505050"/>
    </g>
  </g>
</svg><svg xmlns="http://www.w3.org/2000/svg" width="16" height="16" viewBox="0 0 16 16" x="16" y="0">
  <title>View2</title>
  <g id="BCG-largeIcons">
    <g id="View2">
      <g>
        <rect x="1.5" y="1.5" width="13" height="13" style="fill: #fff"/>
        <path d="M14,2V14H2V2H14m1-1H1V15H15V1Z" style="fill: #4a7db1"/>
      </g>
      <path d="M5.46,12.13c1.91-1.6,3.19-2.73,3.19-3.7,0-.64-.4-1-1.1-1a2,2,0,0,0-1.34.67l-.83-.83A3.07,3.07,0,0,1,7.76,6.22a2.13,2.13,0,0,1,2.36,2.13c0,1.12-1.15,2.32-2.45,3.44.38,0,.87-.07,1.21-.07h1.58V13h-5Z" style="fill: #505050"/>
      <rect x="1" y="1" width="14" height="4" style="fill: #4a7db1"/>
    </g>
  </g>
</svg><svg xmlns="http://www.w3.org/2000/svg" width="16" height="16" viewBox="0 0 16 16" x="32" y="0">
  <title>NavView</title>
  <g id="BCG-largeIcons">
    <g id="NavView">
      <rect x="1" y="2" width="14" height="12" style="fill: #fff"/>
      <rect x="1" y="3" width="3" height="12" style="fill: #c0d2e4"/>
      <path d="M3,3V14H1V3H3M4,2H0V15H4Z" style="fill: #b3b3b3"/>
      <path d="M0,1V5H16V1ZM6,4H5V3H6Zm4,0H9V3h1Zm4,0H13V3h1Z" style="fill: #4a7db1"/>
      <path d="M15,2V14H1V2H15m1-1H0V15H16Z" style="fill: #727272"/>
    </g>
  </g>
</svg><svg xmlns="http://www.w3.org/2000/svg" width="16" height="16" viewBox="0 0 16 16" x="48" y="0">
  <title>Settings</title>
  <g id="BCG-largeIcons">
    <g id="Settings">
      <polygon points="0.35 13.68 0.35 12.98 4.65 8.68 4.65 3.95 4.8 3.6 7.75 0.64 8.11 0.49 12.05 0.49 12.4 1.33 9.58 4.15 9.58 4.73 11.28 6.42 11.85 6.42 14.67 3.6 15.51 3.95 15.51 7.9 15.37 8.25 12.4 11.21 12.05 11.36 7.32 11.36 3.02 15.65 2.33 15.65 0.35 13.68" style="fill: #4a7db1"/>
      <path d="M12,1,9,4V5l1,1,1,1h1l3-3V8l-3,3H7L2.47,15.53l-2-2L5,9V4L8,1h4m0-1H7.76L7.09.29l-2.81,3L4,4V8.47L0,12.64V14.1L2,16H3.37l4.16-4h4.52l.7-.28,3-2.85L16,8.2V4l-1.69-.7L11.6,6h-.17l-.73-.71L10,4.58V4.41l2.7-2.72Z" style="fill: #fff"/>
    </g>
  </g>
</svg><svg xmlns="http://www.w3.org/2000/svg" width="16" height="16" viewBox="0 0 16 16" x="64" y="0">
  <title>OkTask</title>
  <g id="BCG-largeIcons">
    <g id="OkTask">
      <rect x="1" y="1" width="13" height="15" rx="1" ry="1" style="fill: #eac282"/>
      <rect x="3" y="1" width="9" height="12" style="fill: #fff"/>
      <path d="M10,2H9V1A1,1,0,0,0,8,0H7A1,1,0,0,0,6,1V2H5A1,1,0,0,0,4,3V4h7V3A1,1,0,0,0,10,2Z" style="fill: #727272"/>
      <polyline points="4.4 8.63 6.68 10.84 10.6 6" style="fill: none;stroke: #d65633;stroke-miterlimit: 10;stroke-width: 1.2999999523162842px"/>
    </g>
  </g>
</svg><svg xmlns="http://www.w3.org/2000/svg" width="16" height="16" viewBox="0 0 16 16" x="80" y="0">
  <title>Open_1</title>
  <g id="BCG-largeIcons">
    <polygon points="13.35 12.75 0.65 12.75 0.65 3.72 8.23 3.72 10.52 1.46 13.35 1.46 13.35 12.75" style="fill: #fff"/>
    <path id="Open" d="M13,1H10L8,3H1A1,1,0,0,0,0,4v9a1,1,0,0,0,1,1H12l2-2V2A1,1,0,0,0,13,1Zm0,5-1,7H1V4H8.5l2-2H13Zm1,8,1.86-6.86c.34-1,0-1.14-.57-1.14H3.5L1,12v2Z" style="fill: #eac282"/>
  </g>
</svg></svg>