<?xml version="1.0" encoding="utf-8"?>
<!-- Generator: Adobe Illustrator 16.0.0, SVG Export Plug-In . SVG Version: 6.00 Build 0)  -->
<!DOCTYPE svg PUBLIC "-//W3C//DTD SVG 1.1//EN" "http://www.w3.org/Graphics/SVG/1.1/DTD/svg11.dtd">
<svg version="1.1" xmlns="http://www.w3.org/2000/svg" xmlns:xlink="http://www.w3.org/1999/xlink" x="0px" y="0px" width="32px"
	 height="32px" viewBox="0 0 32 32" enable-background="new 0 0 32 32" xml:space="preserve">
<g id="Background" display="none">
	<rect x="-65.667" y="-342.333" display="inline" fill="#363636" width="540" height="407.333"/>
</g>
<g id="Layer_1">
	<path fill="none" stroke="#F2F2F2" stroke-miterlimit="10" d="M15.033,15.533"/>
	<path fill="none" stroke="#F2F2F2" stroke-miterlimit="10" d="M2,21"/>
	<polyline fill="none" stroke="#999999" stroke-miterlimit="10" points="10.5,9 10.5,4.5 25.5,4.5 25.5,15.5 19,15.5 	"/>
	<polyline fill="none" stroke="#999999" stroke-miterlimit="10" points="13,23.5 2.5,23.5 2.5,12.5 17.5,12.5 17.5,17 	"/>
	<rect x="14.5" y="20.5" fill="none" stroke="#999999" stroke-miterlimit="10" width="15" height="11"/>
	<rect x="14" y="18" fill="#0063B1" width="16" height="3"/>
	<rect x="2" y="10" fill="#999999" width="16" height="2"/>
	<rect x="10" y="2" fill="#999999" width="16" height="2"/>
	<rect x="15" y="21" fill="#FFFFFF" width="14" height="10"/>
	<polygon fill="#FFFFFF" points="13,17 13,23 3,23 3,13 17,13 17,17 	"/>
	<polygon fill="#FFFFFF" points="25,15 19,15 19,9 11,9 11,5 25,5 	"/>
</g>
</svg>
