<?xml version="1.0" encoding="utf-8"?>
<svg>
<!-- ZOOM_IN -->
<svg version="1.1" id="Layer_1" xmlns="http://www.w3.org/2000/svg" xmlns:xlink="http://www.w3.org/1999/xlink" x="0px" y="0px"
	 width="32px" height="32px" viewBox="0 0 32 32" enable-background="new 0 0 32 32" xml:space="preserve">
<g>
	<g>
		<linearGradient id="SVGID_1_" gradientUnits="userSpaceOnUse" x1="3.1719" y1="3.1719" x2="28.8287" y2="28.8287">
			<stop  offset="0" style="stop-color:#4287A8"/>
			<stop  offset="1" style="stop-color:#1C5C78"/>
		</linearGradient>
		<path fill="url(#SVGID_1_)" d="M2,26c0,2.209,1.791,4,4,4h20c2.209,0,4-1.791,4-4V6c0-2.209-1.791-4-4-4H6C3.791,2,2,3.791,2,6V26
			z"/>
	</g>
	<circle fill="none" stroke="#FFFFFF" stroke-width="2" stroke-miterlimit="10" cx="16" cy="16" r="10"/>
	<line fill="none" stroke="#FFFFFF" stroke-width="2" stroke-miterlimit="10" x1="10.999" y1="16" x2="20.999" y2="16"/>
	<line fill="none" stroke="#FFFFFF" stroke-width="2" stroke-miterlimit="10" x1="15.999" y1="11" x2="15.999" y2="21"/>
	<line fill="none" stroke="#FFFFFF" stroke-width="2" stroke-miterlimit="10" x1="23" y1="23" x2="26" y2="26"/>
</g>
</svg>
<!-- ZOOM_OUT -->
<svg version="1.1" id="Layer_1" xmlns="http://www.w3.org/2000/svg" xmlns:xlink="http://www.w3.org/1999/xlink" x="0px" y="0px"
	 width="32px" height="32px" viewBox="0 0 32 32" enable-background="new 0 0 32 32" xml:space="preserve">
<g>
	<linearGradient id="SVGID_1_" gradientUnits="userSpaceOnUse" x1="3.1719" y1="3.1724" x2="28.8287" y2="28.8292">
		<stop  offset="0" style="stop-color:#4287A8"/>
		<stop  offset="1" style="stop-color:#1C5C78"/>
	</linearGradient>
	<path fill="url(#SVGID_1_)" d="M2,26c0,2.209,1.791,4,4,4h20c2.209,0,4-1.791,4-4V6c0-2.209-1.791-4-4-4H6C3.791,2,2,3.791,2,6V26z
		"/>
</g>
<line fill="none" stroke="#FFFFFF" stroke-width="2" stroke-miterlimit="10" x1="10.999" y1="16" x2="20.999" y2="16"/>
<g>
	<circle fill="none" stroke="#FFFFFF" stroke-width="2" stroke-miterlimit="10" cx="16" cy="16" r="10"/>
	<line fill="none" stroke="#FFFFFF" stroke-width="2" stroke-miterlimit="10" x1="23" y1="23" x2="26" y2="26"/>
</g>
</svg>
<!-- ZOOM_MORE -->
<svg version="1.1" id="Layer_1" xmlns="http://www.w3.org/2000/svg" xmlns:xlink="http://www.w3.org/1999/xlink" x="0px" y="0px"
	 width="32px" height="32px" viewBox="0 0 32 32" enable-background="new 0 0 32 32" xml:space="preserve">
<g>
	<linearGradient id="SVGID_1_" gradientUnits="userSpaceOnUse" x1="3.1719" y1="3.1724" x2="28.8287" y2="28.8292">
		<stop  offset="0" style="stop-color:#4287A8"/>
		<stop  offset="1" style="stop-color:#1C5C78"/>
	</linearGradient>
	<path fill="url(#SVGID_1_)" d="M2,26c0,2.209,1.791,4,4,4h20c2.209,0,4-1.791,4-4V6c0-2.209-1.791-4-4-4H6C3.791,2,2,3.791,2,6V26z
		"/>
</g>
<circle fill="none" stroke="#FFFFFF" stroke-width="2" stroke-miterlimit="10" cx="16" cy="16" r="10"/>
<line fill="none" stroke="#FFFFFF" stroke-width="2" stroke-miterlimit="10" x1="23" y1="23" x2="26" y2="26"/>
</svg>
<!-- VIEW_PERSPECTIVE -->
<svg version="1.1" id="Layer_1" xmlns="http://www.w3.org/2000/svg" xmlns:xlink="http://www.w3.org/1999/xlink" x="0px" y="0px"
	 width="32px" height="32px" viewBox="0 0 32 32" enable-background="new 0 0 32 32" xml:space="preserve">
<g>
	<g>
		<linearGradient id="SVGID_1_" gradientUnits="userSpaceOnUse" x1="9" y1="6.6348" x2="9" y2="28.4785">
			<stop  offset="0" style="stop-color:#E5E5E5"/>
			<stop  offset="1" style="stop-color:#B3B3B3"/>
		</linearGradient>
		<polygon fill="url(#SVGID_1_)" points="2,6.635 16,10.826 16,28.479 3.826,24.826 		"/>
		<linearGradient id="SVGID_2_" gradientUnits="userSpaceOnUse" x1="2" y1="7.1738" x2="30" y2="7.1738">
			<stop  offset="0" style="stop-color:#F2F2F2"/>
			<stop  offset="1" style="stop-color:#CCCCCC"/>
		</linearGradient>
		<polygon fill="url(#SVGID_2_)" points="16,3.521 30,6.635 16,10.826 2,6.635 		"/>
		<linearGradient id="SVGID_3_" gradientUnits="userSpaceOnUse" x1="23" y1="6.6348" x2="23" y2="28.4785">
			<stop  offset="0" style="stop-color:#CCCCCC"/>
			<stop  offset="1" style="stop-color:#666666"/>
		</linearGradient>
		<polygon fill="url(#SVGID_3_)" points="16,10.826 30,6.635 28.174,24.826 16,28.479 		"/>
	</g>
	<polygon fill="none" points="16,4.413 3,7.304 4.695,24.195 16,27.587 27.305,24.195 29,7.304 	"/>
</g>
<g>
	<linearGradient id="SVGID_4_" gradientUnits="userSpaceOnUse" x1="21.7578" y1="21.7578" x2="30.2431" y2="30.2431">
		<stop  offset="0" style="stop-color:#FFA500"/>
		<stop  offset="1" style="stop-color:#CC8400"/>
	</linearGradient>
	<circle fill="url(#SVGID_4_)" cx="26" cy="26" r="6"/>
	<circle fill="none" stroke="#FFFFFF" stroke-width="2" stroke-miterlimit="10" cx="26" cy="26" r="3"/>
</g>
</svg>
<!-- VIEW_NORMAL -->
<svg version="1.1" id="Layer_1" xmlns="http://www.w3.org/2000/svg" xmlns:xlink="http://www.w3.org/1999/xlink" x="0px" y="0px"
	 width="32px" height="32px" viewBox="0 0 32 32" enable-background="new 0 0 32 32" xml:space="preserve">
<radialGradient id="SVGID_1_" cx="-145.4063" cy="9.7266" r="9.269" fx="-149.2148" fy="5.3385" gradientTransform="matrix(1.1407 0 0 1.1407 178.4368 8.3328)" gradientUnits="userSpaceOnUse">
	<stop  offset="0" style="stop-color:#F2F2F2"/>
	<stop  offset="1" style="stop-color:#999999"/>
</radialGradient>
<circle fill="url(#SVGID_1_)" cx="12.572" cy="19.429" r="10.572"/>
<path fill="none" stroke="#1F5C78" stroke-width="2" stroke-linecap="round" stroke-miterlimit="10" d="M22.133,14.907
	c0.281,0.718,0.301,1.304-0.011,1.615c-0.688,0.689-2.733-0.241-4.567-2.076c-1.836-1.835-2.766-3.88-2.077-4.568
	c0.313-0.312,0.901-0.292,1.621-0.007"/>
<g>
	<g>
		<line fill="none" stroke="#1F5C78" stroke-width="2" stroke-miterlimit="10" x1="23.812" y1="8.188" x2="30" y2="1.999"/>
		<g>
			<polygon fill="#1F5C78" points="26.575,8.711 18.8,13.2 23.288,5.424 			"/>
		</g>
	</g>
</g>
</svg>
<!-- VIEW_ALIGN -->
<svg version="1.1" id="Layer_1" xmlns="http://www.w3.org/2000/svg" xmlns:xlink="http://www.w3.org/1999/xlink" x="0px" y="0px"
	 width="32px" height="32px" viewBox="0 0 32 32" enable-background="new 0 0 32 32" xml:space="preserve">
<linearGradient id="SVGID_1_" gradientUnits="userSpaceOnUse" x1="2.001" y1="2.001" x2="30.0007" y2="30.0007">
	<stop  offset="0" style="stop-color:#E5E5E5"/>
	<stop  offset="1" style="stop-color:#999999"/>
</linearGradient>
<rect x="2" y="2" fill="url(#SVGID_1_)" width="28" height="28"/>
<g>
	<g>
		<polyline fill="none" stroke="#1F5C78" stroke-width="2" stroke-miterlimit="10" points="7,17.088 7,25 14.912,25 		"/>
		<g>
			<polygon fill="#1F5C78" points="4.676,18.673 7,10 9.324,18.673 			"/>
		</g>
		<g>
			<polygon fill="#1F5C78" points="13.327,27.324 22,25 13.327,22.676 			"/>
		</g>
	</g>
</g>
</svg>
<!-- VIEW_BUILTIN -->
<svg version="1.1" id="Layer_1" xmlns="http://www.w3.org/2000/svg" xmlns:xlink="http://www.w3.org/1999/xlink" x="0px" y="0px"
	 width="32px" height="32px" viewBox="0 0 32 32" enable-background="new 0 0 32 32" xml:space="preserve">
<g>
	<g>
		<g>
			<linearGradient id="SVGID_1_" gradientUnits="userSpaceOnUse" x1="10.8574" y1="8.4004" x2="10.8574" y2="27.7148">
				<stop  offset="0" style="stop-color:#E5E5E5"/>
				<stop  offset="1" style="stop-color:#B3B3B3"/>
			</linearGradient>
			<polygon fill="url(#SVGID_1_)" points="2,8.4 19.715,15.372 19.715,27.715 2,20.743 			"/>
			<linearGradient id="SVGID_2_" gradientUnits="userSpaceOnUse" x1="2" y1="9.8281" x2="30" y2="9.8281">
				<stop  offset="0" style="stop-color:#F2F2F2"/>
				<stop  offset="1" style="stop-color:#CCCCCC"/>
			</linearGradient>
			<polygon fill="url(#SVGID_2_)" points="12.285,4.285 30,11.257 19.715,15.372 2,8.4 			"/>
			<linearGradient id="SVGID_3_" gradientUnits="userSpaceOnUse" x1="24.8574" y1="11.2568" x2="24.8574" y2="27.7148">
				<stop  offset="0" style="stop-color:#CCCCCC"/>
				<stop  offset="1" style="stop-color:#666666"/>
			</linearGradient>
			<polygon fill="url(#SVGID_3_)" points="19.715,15.372 30,11.257 30,23.6 19.715,27.715 			"/>
		</g>
	</g>
	<polygon fill="none" points="12.285,4.285 2,8.4 2,20.743 19.715,27.715 30,23.6 30,11.257 	"/>
</g>
</svg>
<!-- PAN -->
<svg version="1.1" id="Layer_1" xmlns="http://www.w3.org/2000/svg" xmlns:xlink="http://www.w3.org/1999/xlink" x="0px" y="0px"
	 width="32px" height="32px" viewBox="0 0 32 32" enable-background="new 0 0 32 32" xml:space="preserve">
<g>
	<linearGradient id="SVGID_1_" gradientUnits="userSpaceOnUse" x1="3.1724" y1="3.1719" x2="28.8292" y2="28.8287">
		<stop  offset="0" style="stop-color:#4287A8"/>
		<stop  offset="1" style="stop-color:#1C5C78"/>
	</linearGradient>
	<path fill="url(#SVGID_1_)" d="M2,26c0,2.209,1.791,4,4,4h20c2.209,0,4-1.791,4-4V6c0-2.209-1.791-4-4-4H6C3.791,2,2,3.791,2,6V26z
		"/>
</g>
<polygon fill="#FFFFFF" points="19,9.195 13,9.195 16.001,4 "/>
<polygon fill="#FFFFFF" points="13,22.805 19,22.805 15.999,28 "/>
<polygon fill="#FFFFFF" points="9.195,13 9.195,19 4,15.999 "/>
<polygon fill="#FFFFFF" points="22.805,19 22.805,13 28,16.001 "/>
</svg>
<!-- VIEW_PREVIOUS -->
<svg version="1.1" id="Layer_1" xmlns="http://www.w3.org/2000/svg" xmlns:xlink="http://www.w3.org/1999/xlink" x="0px" y="0px"
	 width="32px" height="32px" viewBox="0 0 32 32" enable-background="new 0 0 32 32" xml:space="preserve">
<g>
	<g>
		<linearGradient id="SVGID_1_" gradientUnits="userSpaceOnUse" x1="3.1729" y1="3.1729" x2="28.829" y2="28.829">
			<stop  offset="0" style="stop-color:#4287A8"/>
			<stop  offset="1" style="stop-color:#1C5C78"/>
		</linearGradient>
		<path fill="url(#SVGID_1_)" d="M2,26c0,2.209,1.791,4,4,4h20c2.209,0,4-1.791,4-4V6c0-2.209-1.791-4-4-4H6C3.791,2,2,3.791,2,6V26
			z"/>
	</g>
	<g>
		<polygon fill="#FFFFFF" points="23.5,9.732 21.5,11.065 21.5,2.5 25.5,2.5 25.5,11.065 		"/>
		<path fill="#FFFFFF" d="M25,3v7.131l-0.945-0.63L23.5,9.131l-0.555,0.37L22,10.131V3H25 M26,2h-5v10l2.5-1.667L26,12V2L26,2z"/>
	</g>
</g>
</svg>
<!-- ROTATE -->
<svg version="1.1" id="Layer_1" xmlns="http://www.w3.org/2000/svg" xmlns:xlink="http://www.w3.org/1999/xlink" x="0px" y="0px"
	 width="32px" height="32px" viewBox="0 0 32 32" enable-background="new 0 0 32 32" xml:space="preserve">
<g>
	<linearGradient id="SVGID_1_" gradientUnits="userSpaceOnUse" x1="9" y1="7.6006" x2="9" y2="30">
		<stop  offset="0" style="stop-color:#E5E5E5"/>
		<stop  offset="1" style="stop-color:#B3B3B3"/>
	</linearGradient>
	<polygon fill="url(#SVGID_1_)" points="2,7.601 16,13.199 16,30 2,24.399 	"/>
	<linearGradient id="SVGID_2_" gradientUnits="userSpaceOnUse" x1="2" y1="7.5996" x2="30" y2="7.5996">
		<stop  offset="0" style="stop-color:#F2F2F2"/>
		<stop  offset="1" style="stop-color:#CCCCCC"/>
	</linearGradient>
	<polygon fill="url(#SVGID_2_)" points="16,2 30,7.601 16,13.199 2,7.601 	"/>
	<linearGradient id="SVGID_3_" gradientUnits="userSpaceOnUse" x1="23" y1="7.6006" x2="23" y2="30">
		<stop  offset="0" style="stop-color:#CCCCCC"/>
		<stop  offset="1" style="stop-color:#666666"/>
	</linearGradient>
	<polygon fill="url(#SVGID_3_)" points="16,13.199 30,7.601 30,24.399 16,30 	"/>
</g>
<g>
	<g>
		<g>
			<path fill="none" stroke="#1F5C78" stroke-width="2" stroke-miterlimit="10" d="M16,6c5.522,0,10,4.478,10,10s-4.478,10-10,10
				S6,21.522,6,16"/>
			<g>
				<polygon fill="#1F5C78" points="17.585,8.324 8.912,6 17.585,3.676 				"/>
			</g>
		</g>
	</g>
</g>
</svg>
<!-- ROTATE_MORE -->
<svg version="1.1" id="Layer_1" xmlns="http://www.w3.org/2000/svg" xmlns:xlink="http://www.w3.org/1999/xlink" x="0px" y="0px"
	 width="32px" height="32px" viewBox="0 0 32 32" enable-background="new 0 0 32 32" xml:space="preserve">
<g>
	<linearGradient id="SVGID_1_" gradientUnits="userSpaceOnUse" x1="9" y1="7.6006" x2="9" y2="30">
		<stop  offset="0" style="stop-color:#E5E5E5"/>
		<stop  offset="1" style="stop-color:#B3B3B3"/>
	</linearGradient>
	<polygon fill="url(#SVGID_1_)" points="2,7.601 16,13.199 16,30 2,24.399 	"/>
	<linearGradient id="SVGID_2_" gradientUnits="userSpaceOnUse" x1="2" y1="7.5996" x2="30" y2="7.5996">
		<stop  offset="0" style="stop-color:#F2F2F2"/>
		<stop  offset="1" style="stop-color:#CCCCCC"/>
	</linearGradient>
	<polygon fill="url(#SVGID_2_)" points="16,2 30,7.601 16,13.199 2,7.601 	"/>
	<linearGradient id="SVGID_3_" gradientUnits="userSpaceOnUse" x1="23" y1="7.6006" x2="23" y2="30">
		<stop  offset="0" style="stop-color:#CCCCCC"/>
		<stop  offset="1" style="stop-color:#666666"/>
	</linearGradient>
	<polygon fill="url(#SVGID_3_)" points="16,13.199 30,7.601 30,24.399 16,30 	"/>
</g>
<g>
	<g>
		<g>
			<linearGradient id="SVGID_4_" gradientUnits="userSpaceOnUse" x1="17.7256" y1="10.9873" x2="10.9122" y2="22.9715">
				<stop  offset="0" style="stop-color:#61AF23"/>
				<stop  offset="1" style="stop-color:#396C2B"/>
			</linearGradient>
			
				<line fill="none" stroke="url(#SVGID_4_)" stroke-width="2" stroke-linecap="round" stroke-miterlimit="10" x1="17.241" y1="17.439" x2="9" y2="20.734"/>
			<g>
				<linearGradient id="SVGID_5_" gradientUnits="userSpaceOnUse" x1="20.7461" y1="12.7051" x2="13.9329" y2="24.6889">
					<stop  offset="0" style="stop-color:#61AF23"/>
					<stop  offset="1" style="stop-color:#396C2B"/>
				</linearGradient>
				<polygon fill="url(#SVGID_5_)" points="15.199,16.065 23,15.137 16.709,19.843 				"/>
			</g>
		</g>
	</g>
	<g>
		<g>
			<linearGradient id="SVGID_6_" gradientUnits="userSpaceOnUse" x1="11.4707" y1="17.3018" x2="4.3709" y2="14.4246">
				<stop  offset="0" style="stop-color:#3366CC"/>
				<stop  offset="1" style="stop-color:#0E3575"/>
			</linearGradient>
			
				<line fill="none" stroke="url(#SVGID_6_)" stroke-width="2" stroke-linecap="round" stroke-miterlimit="10" x1="9" y1="11.867" x2="9" y2="20.734"/>
			<g>
				<linearGradient id="SVGID_7_" gradientUnits="userSpaceOnUse" x1="13.708" y1="11.7803" x2="6.6095" y2="8.9037">
					<stop  offset="0" style="stop-color:#3366CC"/>
					<stop  offset="1" style="stop-color:#0E3575"/>
				</linearGradient>
				<polygon fill="url(#SVGID_7_)" points="6.967,13.255 9,5.666 11.033,13.255 				"/>
			</g>
		</g>
	</g>
	<g>
		<g>
			<linearGradient id="SVGID_8_" gradientUnits="userSpaceOnUse" x1="21.5791" y1="29.5566" x2="9.149" y2="19.0142">
				<stop  offset="0" style="stop-color:#E528CD"/>
				<stop  offset="1" style="stop-color:#951285"/>
			</linearGradient>
			
				<line fill="none" stroke="url(#SVGID_8_)" stroke-width="2" stroke-linecap="round" stroke-miterlimit="10" x1="17.242" y1="24.031" x2="9" y2="20.734"/>
			<g>
				<linearGradient id="SVGID_9_" gradientUnits="userSpaceOnUse" x1="22.3604" y1="28.6348" x2="9.9302" y2="18.0923">
					<stop  offset="0" style="stop-color:#E528CD"/>
					<stop  offset="1" style="stop-color:#951285"/>
				</linearGradient>
				<polygon fill="url(#SVGID_9_)" points="16.709,21.628 23,26.334 15.199,25.404 				"/>
			</g>
		</g>
	</g>
</g>
</svg>
<!-- THROUGH_FLY -->
<svg version="1.1" id="Layer_1" xmlns="http://www.w3.org/2000/svg" xmlns:xlink="http://www.w3.org/1999/xlink" x="0px" y="0px"
	 width="32px" height="32px" viewBox="0 0 32 32" enable-background="new 0 0 32 32" xml:space="preserve">
<g>
	<linearGradient id="SVGID_1_" gradientUnits="userSpaceOnUse" x1="3.1719" y1="3.1719" x2="28.8287" y2="28.8287">
		<stop  offset="0" style="stop-color:#4287A8"/>
		<stop  offset="1" style="stop-color:#1C5C78"/>
	</linearGradient>
	<path fill="url(#SVGID_1_)" d="M2,26c0,2.209,1.791,4,4,4h20c2.209,0,4-1.791,4-4V6c0-2.209-1.791-4-4-4H6C3.791,2,2,3.791,2,6V26z
		"/>
</g>
<g>
	<polygon fill="#F2F2F2" points="4.979,17.961 26.979,7.766 10.573,19.721 	"/>
	<polygon fill="#F2F2F2" points="14.276,20.837 23.837,23.782 26.979,7.766 	"/>
	<polygon fill="#CCCCCC" points="26.979,7.766 10.546,19.69 13.087,24.234 14.276,20.837 	"/>
	<polygon fill="#E5E5E5" points="13.087,24.234 15.63,21.254 14.276,20.837 	"/>
</g>
</svg>
<!-- THROUGH_WALK -->
<svg version="1.1" id="Layer_1" xmlns="http://www.w3.org/2000/svg" xmlns:xlink="http://www.w3.org/1999/xlink" x="0px" y="0px"
	 width="32px" height="32px" viewBox="0 0 32 32" enable-background="new 0 0 32 32" xml:space="preserve">
<g>
	<linearGradient id="SVGID_1_" gradientUnits="userSpaceOnUse" x1="3.1719" y1="3.1719" x2="28.828" y2="28.828">
		<stop  offset="0" style="stop-color:#4287A8"/>
		<stop  offset="1" style="stop-color:#1C5C78"/>
	</linearGradient>
	<path fill="url(#SVGID_1_)" d="M2,26c0,2.209,1.791,4,4,4h20c2.209,0,4-1.791,4-4V6c0-2.209-1.791-4-4-4H6C3.791,2,2,3.791,2,6V26z
		"/>
</g>
<g>
	<g>
		<g>
			<path fill="#F2F2F2" d="M18.981,12.523c-0.077-0.234,0.416-2.326,1.729-4.262c1.364-2.223,2.884-2.819,3.599-3.093
				c0.715-0.272,1.195,0.078,1.195,0.078s0.339,0.09,0.741,0.61c0,0,0.559,0.78,0.715,2.066c0.155,1.286-0.169,2.17-0.586,3.223
				c-0.415,1.053-1.01,1.73-1.778,2.483c-0.768,0.752-1.509,1.35-1.716,1.35c-0.208,0-1.157-0.508-2.04-1.053
				C19.956,13.382,19.06,12.758,18.981,12.523z"/>
		</g>
		<g>
			<path fill="#F2F2F2" d="M17.177,14.979c0.246-0.104,0.904,0.16,2.147,1.062c1.243,0.9,1.706,1.398,1.715,1.559
				s-0.744,1.137-1.628,1.941s-1.365,0.919-1.976,0.952c-0.611,0.034-1.04-0.225-1.04-0.225c-0.817-0.495-0.922-1.274-0.974-1.69
				s0.025-0.883,0.156-1.325c0.129-0.441,0.546-1.104,0.817-1.434C16.669,15.489,16.929,15.083,17.177,14.979z"/>
		</g>
	</g>
	<g>
		<g>
			<path fill="#F2F2F2" d="M10.831,20.011c0.233-0.082,1.584-1.753,2.31-3.977c0.921-2.439,0.462-4.008,0.241-4.739
				c-0.223-0.732-0.795-0.897-0.795-0.897s-0.279-0.211-0.938-0.211c0,0-0.958,0.037-2.071,0.701
				c-1.111,0.664-1.609,1.463-2.188,2.437c-0.577,0.974-0.75,1.858-0.874,2.927c-0.123,1.068-0.142,2.019-0.015,2.184
				c0.128,0.164,1.11,0.604,2.083,0.968C9.557,19.767,10.6,20.093,10.831,20.011z"/>
		</g>
		<g>
			<path fill="#F2F2F2" d="M9.997,22.943c-0.068-0.259-0.682-0.617-2.156-1.048c-1.472-0.43-2.148-0.49-2.281-0.4
				c-0.133,0.092-0.441,1.285-0.536,2.477c-0.095,1.19,0.109,1.641,0.457,2.145C5.827,26.619,6.294,26.8,6.294,26.8
				c0.893,0.344,1.572-0.051,1.934-0.266c0.36-0.213,0.682-0.562,0.952-0.935c0.27-0.374,0.538-1.108,0.631-1.526
				C9.905,23.656,10.065,23.202,9.997,22.943z"/>
		</g>
	</g>
</g>
</svg>
<!-- VIEW_SAVE -->
<svg version="1.1" id="Layer_1" xmlns="http://www.w3.org/2000/svg" xmlns:xlink="http://www.w3.org/1999/xlink" x="0px" y="0px"
	 width="32px" height="32px" viewBox="0 0 32 32" enable-background="new 0 0 32 32" xml:space="preserve">
<g>
	<g>
		<linearGradient id="SVGID_1_" gradientUnits="userSpaceOnUse" x1="3.1724" y1="3.1729" x2="28.8285" y2="28.829">
			<stop  offset="0" style="stop-color:#4287A8"/>
			<stop  offset="1" style="stop-color:#1C5C78"/>
		</linearGradient>
		<path fill="url(#SVGID_1_)" d="M2,26c0,2.209,1.791,4,4,4h20c2.209,0,4-1.791,4-4V6c0-2.209-1.791-4-4-4H6C3.791,2,2,3.791,2,6V26
			z"/>
	</g>
	<g>
		<polygon fill="#FFFFFF" points="23.5,9.732 21.5,11.065 21.5,2.5 25.5,2.5 25.5,11.065 		"/>
		<path fill="#FFFFFF" d="M25,3v7.131l-0.945-0.63L23.5,9.131l-0.555,0.37L22,10.131V3H25 M26,2h-5v10l2.5-1.667L26,12V2L26,2z"/>
	</g>
</g>
<g>
	<g>
		<linearGradient id="SVGID_2_" gradientUnits="userSpaceOnUse" x1="21.7583" y1="21.7578" x2="30.2429" y2="30.2424">
			<stop  offset="0" style="stop-color:#60D700"/>
			<stop  offset="1" style="stop-color:#61AE24"/>
		</linearGradient>
		<circle fill="url(#SVGID_2_)" cx="26" cy="26" r="6"/>
	</g>
	<line fill="none" stroke="#FFFFFF" stroke-width="2" stroke-miterlimit="10" x1="22" y1="26" x2="30" y2="26"/>
	<line fill="none" stroke="#FFFFFF" stroke-width="2" stroke-miterlimit="10" x1="26" y1="22" x2="26" y2="30"/>
</g>
</svg>
<!-- VIEW_LOAD -->
<svg version="1.1" id="Layer_1" xmlns="http://www.w3.org/2000/svg" xmlns:xlink="http://www.w3.org/1999/xlink" x="0px" y="0px"
	 width="32px" height="32px" viewBox="0 0 32 32" enable-background="new 0 0 32 32" xml:space="preserve">
<g>
	<g>
		<linearGradient id="SVGID_1_" gradientUnits="userSpaceOnUse" x1="3.1719" y1="3.1719" x2="28.8287" y2="28.8287">
			<stop  offset="0" style="stop-color:#4287A8"/>
			<stop  offset="1" style="stop-color:#1C5C78"/>
		</linearGradient>
		<path fill="url(#SVGID_1_)" d="M2,26c0,2.209,1.791,4,4,4h20c2.209,0,4-1.791,4-4V6c0-2.209-1.791-4-4-4H6C3.791,2,2,3.791,2,6V26
			z"/>
	</g>
	<g>
		<polygon fill="#FFFFFF" points="23.5,9.732 21.5,11.065 21.5,2.5 25.5,2.5 25.5,11.065 		"/>
		<path fill="#FFFFFF" d="M25,3v7.131l-0.945-0.63L23.5,9.131l-0.555,0.37L22,10.131V3H25 M26,2h-5v10l2.5-1.667L26,12V2L26,2z"/>
	</g>
</g>
<g>
	<linearGradient id="SVGID_2_" gradientUnits="userSpaceOnUse" x1="21.7578" y1="21.7578" x2="30.2424" y2="30.2424">
		<stop  offset="0" style="stop-color:#7ABBFF"/>
		<stop  offset="1" style="stop-color:#3366CC"/>
	</linearGradient>
	<circle fill="url(#SVGID_2_)" cx="26" cy="26" r="6"/>
	<polyline fill="none" stroke="#FFFFFF" stroke-width="2" stroke-miterlimit="10" points="24.5,23 27.5,26 24.5,29 	"/>
</g>
</svg>
<!-- SCENE_MANAGER -->
<svg version="1.1" id="Layer_1" xmlns="http://www.w3.org/2000/svg" xmlns:xlink="http://www.w3.org/1999/xlink" x="0px" y="0px"
	 width="32px" height="32px" viewBox="0 0 32 32" enable-background="new 0 0 32 32" xml:space="preserve">
<g>
	<linearGradient id="SVGID_1_" gradientUnits="userSpaceOnUse" x1="16" y1="5" x2="16" y2="27">
		<stop  offset="0.1183" style="stop-color:#E5E5E5"/>
		<stop  offset="0.8495" style="stop-color:#B3B3B3"/>
	</linearGradient>
	<linearGradient id="SVGID_2_" gradientUnits="userSpaceOnUse" x1="7.0547" y1="0.5049" x2="24.9473" y2="31.4957">
		<stop  offset="0" style="stop-color:#CCCCCC"/>
		<stop  offset="1" style="stop-color:#666666"/>
	</linearGradient>
	
		<rect x="2" y="5" fill="url(#SVGID_1_)" stroke="url(#SVGID_2_)" stroke-width="2" stroke-miterlimit="10" width="28" height="22"/>
	<linearGradient id="SVGID_3_" gradientUnits="userSpaceOnUse" x1="4.5" y1="9" x2="4.5" y2="23">
		<stop  offset="0" style="stop-color:#808080"/>
		<stop  offset="1" style="stop-color:#4D4D4D"/>
	</linearGradient>
	<linearGradient id="SVGID_4_" gradientUnits="userSpaceOnUse" x1="8" y1="16" x2="1" y2="16">
		<stop  offset="0" style="stop-color:#808080"/>
		<stop  offset="1" style="stop-color:#4D4D4D"/>
	</linearGradient>
	<rect x="2" y="9" fill="url(#SVGID_3_)" stroke="url(#SVGID_4_)" stroke-width="2" stroke-miterlimit="10" width="5" height="14"/>
	<g>
		<linearGradient id="SVGID_5_" gradientUnits="userSpaceOnUse" x1="18.4346" y1="7.3916" x2="18.4346" y2="24.4346">
			<stop  offset="0" style="stop-color:#CCCCCC"/>
			<stop  offset="1" style="stop-color:#999999"/>
		</linearGradient>
		<path fill="url(#SVGID_5_)" d="M18.435,10.392c3.045,0,5.521,2.477,5.521,5.521s-2.477,5.521-5.521,5.521
			s-5.521-2.477-5.521-5.521S15.39,10.392,18.435,10.392 M18.435,7.392c-4.706,0-8.521,3.815-8.521,8.521
			c0,4.707,3.815,8.521,8.521,8.521c4.707,0,8.521-3.814,8.521-8.521C26.956,11.207,23.142,7.392,18.435,7.392L18.435,7.392z"/>
	</g>
	<radialGradient id="SVGID_6_" cx="16.6865" cy="13.8584" r="5.935" gradientUnits="userSpaceOnUse">
		<stop  offset="0.1452" style="stop-color:#7C8AB4"/>
		<stop  offset="0.8011" style="stop-color:#556699"/>
	</radialGradient>
	<linearGradient id="SVGID_7_" gradientUnits="userSpaceOnUse" x1="18.4355" y1="9.0215" x2="18.4355" y2="22.8047">
		<stop  offset="0" style="stop-color:#E5E5E5"/>
		<stop  offset="1" style="stop-color:#556699"/>
	</linearGradient>
	<circle fill="url(#SVGID_6_)" stroke="url(#SVGID_7_)" stroke-miterlimit="10" cx="18.435" cy="15.913" r="6.391"/>
	<line fill="none" stroke="#999999" stroke-width="2" stroke-miterlimit="10" x1="4" y1="3" x2="9" y2="3"/>
</g>
<g>
	<linearGradient id="SVGID_8_" gradientUnits="userSpaceOnUse" x1="21.7578" y1="21.7578" x2="30.2431" y2="30.2431">
		<stop  offset="0" style="stop-color:#FFA500"/>
		<stop  offset="1" style="stop-color:#CC8400"/>
	</linearGradient>
	<circle fill="url(#SVGID_8_)" cx="26" cy="26" r="6"/>
	<circle fill="none" stroke="#FFFFFF" stroke-width="2" stroke-miterlimit="10" cx="26" cy="26" r="3"/>
</g>
</svg>
<!-- ENTITY_SHOW_ALL -->
<svg version="1.1" id="Layer_1" xmlns="http://www.w3.org/2000/svg" xmlns:xlink="http://www.w3.org/1999/xlink" x="0px" y="0px"
	 width="32px" height="32px" viewBox="0 0 32 32" enable-background="new 0 0 32 32" xml:space="preserve">
<g>
	<g>
		<path fill="none" d="M21.08,11.332c0.007-0.14,0.011-0.281,0.011-0.423c0-4.218-3.418-7.636-7.636-7.636
			c-4.218,0-7.637,3.418-7.637,7.636c0,1.789,0.616,3.435,1.647,4.737h0.002L2,23.636l8.273,5.091l6.945-4.273l5.146,3.002L30,23
			v-9.545l-7.636-2.546L21.08,11.332z"/>
	</g>
	<g opacity="0.7">
		
			<radialGradient id="SVGID_1_" cx="-37.8662" cy="37.9961" r="8.1816" fx="-41.228" fy="34.1228" gradientTransform="matrix(0.9333 0 0 0.9333 48.7951 -24.552)" gradientUnits="userSpaceOnUse">
			<stop  offset="0" style="stop-color:#DBEFF7"/>
			<stop  offset="1" style="stop-color:#48677E"/>
		</radialGradient>
		<circle fill="url(#SVGID_1_)" cx="13.454" cy="10.909" r="7.636"/>
		<g>
			<linearGradient id="SVGID_2_" gradientUnits="userSpaceOnUse" x1="18.5454" y1="13.4551" x2="18.5454" y2="27.4551">
				<stop  offset="0.086" style="stop-color:#A0E968"/>
				<stop  offset="0.8656" style="stop-color:#2BB416"/>
			</linearGradient>
			<polyline fill="url(#SVGID_2_)" points="14.727,13.455 14.727,23 22.364,27.455 22.364,16.636 			"/>
			<linearGradient id="SVGID_3_" gradientUnits="userSpaceOnUse" x1="26.1821" y1="27.4551" x2="26.1821" y2="13.4551">
				<stop  offset="0" style="stop-color:#1A9A1A"/>
				<stop  offset="1" style="stop-color:#096209"/>
			</linearGradient>
			<polyline fill="url(#SVGID_3_)" points="30,13.455 30,23 22.364,27.455 22.364,16.636 			"/>
			<linearGradient id="SVGID_4_" gradientUnits="userSpaceOnUse" x1="14.7271" y1="13.7725" x2="30" y2="13.7725">
				<stop  offset="0" style="stop-color:#FFFFFE"/>
				<stop  offset="1" style="stop-color:#BFE890"/>
			</linearGradient>
			<polygon fill="url(#SVGID_4_)" points="14.727,13.455 22.364,16.636 30,13.455 22.364,10.909 			"/>
		</g>
		<g>
			<linearGradient id="SVGID_5_" gradientUnits="userSpaceOnUse" x1="6.1362" y1="11.5459" x2="6.1362" y2="28.7266">
				<stop  offset="0" style="stop-color:#FEF7DC"/>
				<stop  offset="1" style="stop-color:#F9AB1C"/>
			</linearGradient>
			<polyline fill="url(#SVGID_5_)" points="10.273,11.546 2,23.636 10.273,28.727 			"/>
			<polyline fill="#E86207" points="10.273,11.546 18.545,23.636 10.273,28.727 			"/>
		</g>
	</g>
</g>
</svg>
<!-- ENTITY_SHOW_ONLY -->
<svg version="1.1" id="Layer_1" xmlns="http://www.w3.org/2000/svg" xmlns:xlink="http://www.w3.org/1999/xlink" x="0px" y="0px"
	 width="32px" height="32px" viewBox="0 0 32 32" enable-background="new 0 0 32 32" xml:space="preserve">
<g>
	<g>
		<path fill="none" d="M21.08,11.332c0.007-0.14,0.011-0.281,0.011-0.423c0-4.218-3.419-7.636-7.636-7.636
			c-4.219,0-7.637,3.418-7.637,7.636c0,1.789,0.615,3.435,1.646,4.737h0.002L2,23.636l8.273,5.091l6.944-4.273l5.146,3.002L30,23
			v-9.545l-7.637-2.546L21.08,11.332z"/>
	</g>
	<g opacity="0.7">
		
			<radialGradient id="SVGID_1_" cx="-23.5723" cy="37.9961" r="8.1812" fx="-26.9338" fy="34.123" gradientTransform="matrix(0.9333 0 0 0.9333 35.455 -24.552)" gradientUnits="userSpaceOnUse">
			<stop  offset="0" style="stop-color:#DBEFF7"/>
			<stop  offset="1" style="stop-color:#48677E"/>
		</radialGradient>
		<circle fill="url(#SVGID_1_)" cx="13.455" cy="10.909" r="7.636"/>
	</g>
</g>
<g>
	<g>
		<g>
			<polyline fill="none" stroke="#1F5C78" stroke-width="2" stroke-linejoin="round" points="13.03,12.729 10.273,11.546 
				8.579,14.021 			"/>
			
				<line fill="none" stroke="#1F5C78" stroke-width="2" stroke-linejoin="round" stroke-dasharray="4.3249,2.1624" x1="7.358" y1="15.807" x2="4.305" y2="20.268"/>
			<polyline fill="none" stroke="#1F5C78" stroke-width="2" stroke-linejoin="round" points="3.694,21.16 2,23.636 4.555,25.208 			
				"/>
			<polyline fill="none" stroke="#1F5C78" stroke-width="2" stroke-linejoin="round" points="7.719,27.154 10.273,28.727 
				12.828,27.154 			"/>
			<polyline fill="none" stroke="#1F5C78" stroke-width="2" stroke-linejoin="round" points="14.663,26.025 17.218,24.453 
				22.364,27.455 24.955,25.943 			"/>
			<polyline fill="none" stroke="#1F5C78" stroke-width="2" stroke-linejoin="round" points="27.409,24.512 30,23 30,20 			"/>
			<polyline fill="none" stroke="#1F5C78" stroke-width="2" stroke-linejoin="round" points="30,16.455 30,13.455 27.154,12.506 			
				"/>
			<polyline fill="none" stroke="#1F5C78" stroke-width="2" stroke-linejoin="round" stroke-dasharray="7.4725,3.7362" points="
				23.609,11.324 22.364,10.909 14.748,13.448 			"/>
		</g>
	</g>
	<g>
		<polygon fill="#4188A8" points="13.454,10.909 17.854,19.709 18.954,16.409 		"/>
		<polygon fill="#1F5C78" points="13.454,10.909 18.954,16.409 22.254,15.31 		"/>
	</g>
</g>
</svg>
<!-- ENTITY_HIDE -->
<svg version="1.1" id="Layer_1" xmlns="http://www.w3.org/2000/svg" xmlns:xlink="http://www.w3.org/1999/xlink" x="0px" y="0px"
	 width="32px" height="32px" viewBox="0 0 32 32" enable-background="new 0 0 32 32" xml:space="preserve">
<g>
	<g>
		<path fill="none" d="M21.08,11.332c0.007-0.14,0.011-0.281,0.011-0.423c0-4.218-3.419-7.636-7.636-7.636
			c-4.219,0-7.637,3.418-7.637,7.636c0,1.789,0.615,3.435,1.646,4.737h0.002L2,23.636l8.273,5.091l6.944-4.273l5.146,3.002L30,23
			v-9.545l-7.637-2.546L21.08,11.332z"/>
	</g>
	<g opacity="0.7">
		<g>
			<linearGradient id="SVGID_1_" gradientUnits="userSpaceOnUse" x1="18.5449" y1="13.4551" x2="18.5449" y2="27.4551">
				<stop  offset="0.086" style="stop-color:#A0E968"/>
				<stop  offset="0.8656" style="stop-color:#2BB416"/>
			</linearGradient>
			<polyline fill="url(#SVGID_1_)" points="14.727,13.455 14.727,23 22.363,27.455 22.363,16.636 			"/>
			<linearGradient id="SVGID_2_" gradientUnits="userSpaceOnUse" x1="26.1816" y1="27.4551" x2="26.1816" y2="13.4551">
				<stop  offset="0" style="stop-color:#1A9A1A"/>
				<stop  offset="1" style="stop-color:#096209"/>
			</linearGradient>
			<polyline fill="url(#SVGID_2_)" points="30,13.455 30,23 22.363,27.455 22.363,16.636 			"/>
			<linearGradient id="SVGID_3_" gradientUnits="userSpaceOnUse" x1="14.7266" y1="13.7725" x2="30" y2="13.7725">
				<stop  offset="0" style="stop-color:#FFFFFE"/>
				<stop  offset="1" style="stop-color:#BFE890"/>
			</linearGradient>
			<polygon fill="url(#SVGID_3_)" points="14.727,13.455 22.363,16.636 30,13.455 22.363,10.909 			"/>
		</g>
		<g>
			<linearGradient id="SVGID_4_" gradientUnits="userSpaceOnUse" x1="6.1367" y1="11.5459" x2="6.1367" y2="28.7266">
				<stop  offset="0" style="stop-color:#FEF7DC"/>
				<stop  offset="1" style="stop-color:#F9AB1C"/>
			</linearGradient>
			<polyline fill="url(#SVGID_4_)" points="10.273,11.546 2,23.636 10.273,28.727 			"/>
			<polyline fill="#E86207" points="10.273,11.546 18.545,23.636 10.273,28.727 			"/>
		</g>
	</g>
</g>
<g>
	<g>
		
			<circle fill="none" stroke="#1F5C78" stroke-width="2" stroke-linejoin="round" stroke-dasharray="5.9906,1.9969" cx="13.455" cy="10.909" r="7.636"/>
	</g>
	<g>
		<polygon fill="#4188A8" points="13.454,10.909 17.854,19.709 18.954,16.409 		"/>
		<polygon fill="#1F5C78" points="13.454,10.909 18.954,16.409 22.254,15.31 		"/>
	</g>
</g>
</svg>
<!-- ENTITY_SHOW_MODE -->
<svg version="1.1" id="Layer_1" xmlns="http://www.w3.org/2000/svg" xmlns:xlink="http://www.w3.org/1999/xlink" x="0px" y="0px"
	 width="32px" height="32px" viewBox="0 0 32 32" enable-background="new 0 0 32 32" xml:space="preserve">
<g>
	<g>
		<path fill="none" d="M21.08,11.332c0.007-0.14,0.011-0.281,0.011-0.423c0-4.218-3.419-7.636-7.636-7.636
			c-4.219,0-7.637,3.418-7.637,7.636c0,1.789,0.615,3.435,1.646,4.737h0.002L2,23.636l8.273,5.091l6.944-4.273l5.146,3.002L30,23
			v-9.545l-7.637-2.546L21.08,11.332z"/>
	</g>
	<g opacity="0.7">
		
			<radialGradient id="SVGID_1_" cx="-16.4258" cy="37.9961" r="8.1816" fx="-19.7875" fy="34.1228" gradientTransform="matrix(0.9333 0 0 0.9333 28.785 -24.552)" gradientUnits="userSpaceOnUse">
			<stop  offset="0" style="stop-color:#DBEFF7"/>
			<stop  offset="1" style="stop-color:#48677E"/>
		</radialGradient>
		<circle fill="url(#SVGID_1_)" cx="13.455" cy="10.909" r="7.636"/>
		<g>
			<linearGradient id="SVGID_2_" gradientUnits="userSpaceOnUse" x1="18.5449" y1="13.4551" x2="18.5449" y2="27.4551">
				<stop  offset="0.086" style="stop-color:#A0E968"/>
				<stop  offset="0.8656" style="stop-color:#2BB416"/>
			</linearGradient>
			<polyline fill="url(#SVGID_2_)" points="14.727,13.455 14.727,23 22.363,27.455 22.363,16.636 			"/>
			<linearGradient id="SVGID_3_" gradientUnits="userSpaceOnUse" x1="26.1816" y1="27.4551" x2="26.1816" y2="13.4551">
				<stop  offset="0" style="stop-color:#1A9A1A"/>
				<stop  offset="1" style="stop-color:#096209"/>
			</linearGradient>
			<polyline fill="url(#SVGID_3_)" points="30,13.455 30,23 22.363,27.455 22.363,16.636 			"/>
			<linearGradient id="SVGID_4_" gradientUnits="userSpaceOnUse" x1="14.7266" y1="13.7725" x2="30" y2="13.7725">
				<stop  offset="0" style="stop-color:#FFFFFE"/>
				<stop  offset="1" style="stop-color:#BFE890"/>
			</linearGradient>
			<polygon fill="url(#SVGID_4_)" points="14.727,13.455 22.363,16.636 30,13.455 22.363,10.909 			"/>
		</g>
		<g>
			<linearGradient id="SVGID_5_" gradientUnits="userSpaceOnUse" x1="6.1367" y1="11.5459" x2="6.1367" y2="28.7266">
				<stop  offset="0" style="stop-color:#FEF7DC"/>
				<stop  offset="1" style="stop-color:#F9AB1C"/>
			</linearGradient>
			<polyline fill="url(#SVGID_5_)" points="10.273,11.546 2,23.636 10.273,28.727 			"/>
			<polyline fill="#E86207" points="10.273,11.546 18.545,23.636 10.273,28.727 			"/>
		</g>
	</g>
</g>
<g>
	<linearGradient id="SVGID_6_" gradientUnits="userSpaceOnUse" x1="21.7578" y1="21.7578" x2="30.2424" y2="30.2424">
		<stop  offset="0" style="stop-color:#FFA500"/>
		<stop  offset="1" style="stop-color:#CC8400"/>
	</linearGradient>
	<circle fill="url(#SVGID_6_)" cx="26" cy="26" r="6"/>
	<circle fill="none" stroke="#FFFFFF" stroke-width="2" stroke-miterlimit="10" cx="26" cy="26" r="3"/>
</g>
</svg>
<!-- RENDER_SHADE -->
<svg version="1.1" id="Layer_1" xmlns="http://www.w3.org/2000/svg" xmlns:xlink="http://www.w3.org/1999/xlink" x="0px" y="0px"
	 width="32px" height="32px" viewBox="0 0 32 32" enable-background="new 0 0 32 32" xml:space="preserve">
<g>
	<linearGradient id="SVGID_1_" gradientUnits="userSpaceOnUse" x1="9" y1="7.6006" x2="9" y2="30">
		<stop  offset="0" style="stop-color:#E5E5E5"/>
		<stop  offset="1" style="stop-color:#B3B3B3"/>
	</linearGradient>
	<polygon fill="url(#SVGID_1_)" points="2,7.601 16,13.199 16,30 2,24.399 	"/>
	<linearGradient id="SVGID_2_" gradientUnits="userSpaceOnUse" x1="2" y1="7.5996" x2="30" y2="7.5996">
		<stop  offset="0" style="stop-color:#F2F2F2"/>
		<stop  offset="1" style="stop-color:#CCCCCC"/>
	</linearGradient>
	<polygon fill="url(#SVGID_2_)" points="16,2 30,7.601 16,13.199 2,7.601 	"/>
	<linearGradient id="SVGID_3_" gradientUnits="userSpaceOnUse" x1="23" y1="7.6006" x2="23" y2="30">
		<stop  offset="0" style="stop-color:#CCCCCC"/>
		<stop  offset="1" style="stop-color:#666666"/>
	</linearGradient>
	<polygon fill="url(#SVGID_3_)" points="16,13.199 30,7.601 30,24.399 16,30 	"/>
</g>
</svg>
<!-- RENDER_WIREFRAME -->
<svg version="1.1" id="Layer_1" xmlns="http://www.w3.org/2000/svg" xmlns:xlink="http://www.w3.org/1999/xlink" x="0px" y="0px"
	 width="32px" height="32px" viewBox="0 0 32 32" enable-background="new 0 0 32 32" xml:space="preserve">
<g>
	<g>
		<path fill="#4188A8" d="M16,4l12,4.8v14.401L16,28L4,23.201V8.8L16,4 M16,2c-0.252,0-0.504,0.048-0.743,0.143l-12,4.8
			C2.498,7.246,2,7.982,2,8.8v14.401c0,0.818,0.498,1.554,1.258,1.857l12,4.799C15.496,29.952,15.748,30,16,30
			s0.504-0.048,0.742-0.143l12-4.799C29.502,24.755,30,24.02,30,23.201V8.8c0-0.817-0.498-1.554-1.257-1.857l-12-4.8
			C16.504,2.048,16.252,2,16,2L16,2z"/>
	</g>
	
		<line fill="none" stroke="#4188A8" stroke-width="2" stroke-linejoin="round" stroke-miterlimit="10" x1="16" y1="13.6" x2="28" y2="8.8"/>
	<polyline fill="none" stroke="#4188A8" stroke-width="2" stroke-linejoin="round" stroke-miterlimit="10" points="4,8.8 16,13.6 
		28,8.8 	"/>
	
		<line fill="none" stroke="#4188A8" stroke-width="2" stroke-linejoin="round" stroke-miterlimit="10" x1="16" y1="4" x2="16" y2="28"/>
	<polyline fill="none" stroke="#4188A8" stroke-width="2" stroke-miterlimit="10" points="4,23.201 15.875,18.4 28,23.201 	"/>
</g>
</svg>
<!-- RENDER_MORE -->
<svg version="1.1" id="Layer_1" xmlns="http://www.w3.org/2000/svg" xmlns:xlink="http://www.w3.org/1999/xlink" x="0px" y="0px"
	 width="32px" height="32px" viewBox="0 0 32 32" enable-background="new 0 0 32 32" xml:space="preserve">
<g>
	<linearGradient id="SVGID_1_" gradientUnits="userSpaceOnUse" x1="4.4619" y1="19.3467" x2="27.5381" y2="19.3467">
		<stop  offset="0" style="stop-color:#CCCCCC"/>
		<stop  offset="1" style="stop-color:#666666"/>
	</linearGradient>
	<path fill="url(#SVGID_1_)" d="M4.462,23.307C4.462,27.004,9.628,30,16,30c6.374,0,11.538-2.996,11.538-6.693V8.693
		c0,3.695-5.164,6.691-11.538,6.691c-6.372,0-11.538-2.996-11.538-6.691V23.307z"/>
	<linearGradient id="SVGID_2_" gradientUnits="userSpaceOnUse" x1="4.4619" y1="8.6924" x2="27.5381" y2="8.6924">
		<stop  offset="0" style="stop-color:#F2F2F2"/>
		<stop  offset="1" style="stop-color:#CCCCCC"/>
	</linearGradient>
	<ellipse fill="url(#SVGID_2_)" cx="16" cy="8.692" rx="11.538" ry="6.692"/>
	<linearGradient id="SVGID_3_" gradientUnits="userSpaceOnUse" x1="21.7686" y1="8.6924" x2="10.2314" y2="8.6924">
		<stop  offset="0" style="stop-color:#CCCCCC"/>
		<stop  offset="1" style="stop-color:#666666"/>
	</linearGradient>
	<ellipse fill="url(#SVGID_3_)" cx="16" cy="8.693" rx="5.769" ry="3.346"/>
</g>
</svg>
<!-- EFFECT_SHADOW -->
<svg version="1.1" id="Layer_1" xmlns="http://www.w3.org/2000/svg" xmlns:xlink="http://www.w3.org/1999/xlink" x="0px" y="0px"
	 width="32px" height="32px" viewBox="0 0 32 32" enable-background="new 0 0 32 32" xml:space="preserve">
<g>
	<g>
		<polyline fill="#CCCCCC" points="16.001,5.914 3.957,22.863 16.001,30 		"/>
		<polygon fill="#CCCCCC" points="16.001,5.914 28.043,22.863 16.001,30 		"/>
	</g>
	<g>
		<linearGradient id="SVGID_1_" gradientUnits="userSpaceOnUse" x1="9.979" y1="2" x2="9.979" y2="26.0859">
			<stop  offset="0" style="stop-color:#F2F2F2"/>
			<stop  offset="1" style="stop-color:#B3B3B3"/>
		</linearGradient>
		<polyline fill="url(#SVGID_1_)" points="16.001,2 3.957,18.949 16.001,26.086 		"/>
		<polygon fill="#999999" points="16.001,2 28.043,18.949 16.001,26.086 		"/>
	</g>
</g>
</svg>
<!-- EFFECT_PLANE_REFLECTION -->
<svg version="1.1" id="Layer_1" xmlns="http://www.w3.org/2000/svg" xmlns:xlink="http://www.w3.org/1999/xlink" x="0px" y="0px"
	 width="32px" height="32px" viewBox="0 0 32 32" enable-background="new 0 0 32 32" xml:space="preserve">
<g>
	<g opacity="0.5">
		
			<linearGradient id="SVGID_1_" gradientUnits="userSpaceOnUse" x1="11.7227" y1="-778" x2="11.7227" y2="-760.8887" gradientTransform="matrix(1 0 0 -1 0 -748)">
			<stop  offset="0" style="stop-color:#F2F2F2"/>
			<stop  offset="1" style="stop-color:#B3B3B3"/>
		</linearGradient>
		<polyline fill="url(#SVGID_1_)" points="16.001,30 7.444,17.959 16.001,12.889 		"/>
		<polygon fill="#999999" points="16.001,30 24.556,17.959 16.001,12.889 		"/>
	</g>
	<g>
		<linearGradient id="SVGID_2_" gradientUnits="userSpaceOnUse" x1="11.7227" y1="2" x2="11.7227" y2="19.1113">
			<stop  offset="0" style="stop-color:#F2F2F2"/>
			<stop  offset="1" style="stop-color:#B3B3B3"/>
		</linearGradient>
		<polyline fill="url(#SVGID_2_)" points="16.001,2 7.444,14.041 16.001,19.111 		"/>
		<polygon fill="#999999" points="16.001,2 24.556,14.041 16.001,19.111 		"/>
	</g>
</g>
</svg>
<!-- EFFECT_AMBIENT_OCCLUSION -->
<svg version="1.1" id="Layer_1" xmlns="http://www.w3.org/2000/svg" xmlns:xlink="http://www.w3.org/1999/xlink" x="0px" y="0px"
	 width="32px" height="32px" viewBox="0 0 32 32" enable-background="new 0 0 32 32" xml:space="preserve">
<g>
	<polygon fill="#999999" fill-opacity="0.5" points="16.001,2 2,21.703 16.001,30 30,21.703 	"/>
	<g>
		<linearGradient id="SVGID_1_" gradientUnits="userSpaceOnUse" x1="10.4004" y1="4.7998" x2="10.4004" y2="27.2002">
			<stop  offset="0" style="stop-color:#F2F2F2"/>
			<stop  offset="1" style="stop-color:#B3B3B3"/>
		</linearGradient>
		<polyline fill="url(#SVGID_1_)" points="16.001,4.8 4.8,20.563 16.001,27.2 		"/>
		<polygon fill="#999999" points="16.001,4.8 27.2,20.563 16.001,27.2 		"/>
	</g>
</g>
</svg>
<!-- EFFECT_SILHOUETTE_EDGE -->
<svg version="1.1" id="Layer_1" xmlns="http://www.w3.org/2000/svg" xmlns:xlink="http://www.w3.org/1999/xlink" x="0px" y="0px"
	 width="32px" height="32px" viewBox="0 0 32 32" enable-background="new 0 0 32 32" xml:space="preserve">
<g>
	
		<radialGradient id="SVGID_1_" cx="-16.4258" cy="52.2891" r="8.1821" fx="-19.7877" fy="48.4155" gradientTransform="matrix(0.9333 0 0 0.9333 28.785 -37.892)" gradientUnits="userSpaceOnUse">
		<stop  offset="0" style="stop-color:#F2F2F2"/>
		<stop  offset="1" style="stop-color:#999999"/>
	</radialGradient>
	<circle fill="url(#SVGID_1_)" cx="13.455" cy="10.909" r="7.636"/>
	<g>
		<linearGradient id="SVGID_2_" gradientUnits="userSpaceOnUse" x1="18.5449" y1="13.4551" x2="18.5449" y2="27.4551">
			<stop  offset="0" style="stop-color:#E5E5E5"/>
			<stop  offset="1" style="stop-color:#B3B3B3"/>
		</linearGradient>
		<polyline fill="url(#SVGID_2_)" points="14.727,13.455 14.727,23 22.364,27.455 22.364,16.636 		"/>
		<linearGradient id="SVGID_3_" gradientUnits="userSpaceOnUse" x1="26.1816" y1="13.4551" x2="26.1816" y2="27.4551">
			<stop  offset="0" style="stop-color:#CCCCCC"/>
			<stop  offset="1" style="stop-color:#666666"/>
		</linearGradient>
		<polyline fill="url(#SVGID_3_)" points="30,13.455 30,23 22.364,27.455 22.364,16.636 		"/>
		<linearGradient id="SVGID_4_" gradientUnits="userSpaceOnUse" x1="14.7266" y1="13.7725" x2="30" y2="13.7725">
			<stop  offset="0" style="stop-color:#F2F2F2"/>
			<stop  offset="1" style="stop-color:#CCCCCC"/>
		</linearGradient>
		<polygon fill="url(#SVGID_4_)" points="14.727,13.455 22.364,16.636 30,13.455 22.364,10.909 		"/>
	</g>
	<g>
		<linearGradient id="SVGID_5_" gradientUnits="userSpaceOnUse" x1="6.1367" y1="11.5459" x2="6.1367" y2="28.7266">
			<stop  offset="0" style="stop-color:#F2F2F2"/>
			<stop  offset="1" style="stop-color:#B3B3B3"/>
		</linearGradient>
		<polyline fill="url(#SVGID_5_)" points="10.273,11.546 2,23.636 10.273,28.727 		"/>
		<polyline fill="#999999" points="10.273,11.546 18.545,23.636 10.273,28.727 		"/>
	</g>
</g>
<g>
	<circle fill="none" cx="13.455" cy="10.909" r="7.636"/>
	<g>
		
			<line fill="none" stroke="#4188A8" stroke-linecap="round" stroke-linejoin="round" stroke-miterlimit="10" x1="14.727" y1="13.455" x2="14.727" y2="18.056"/>
		<polyline fill="none" stroke="#4188A8" stroke-linecap="round" stroke-linejoin="round" stroke-miterlimit="10" points="
			30,13.455 30,23 22.364,27.455 22.364,16.636 		"/>
		<polygon fill="none" stroke="#4188A8" stroke-linecap="round" stroke-linejoin="round" stroke-miterlimit="10" points="
			14.727,13.455 22.364,16.636 30,13.455 22.364,10.909 		"/>
	</g>
	<g>
		<polyline fill="none" stroke="#4188A8" stroke-linecap="round" stroke-linejoin="round" stroke-miterlimit="10" points="
			10.273,11.546 2,23.636 10.273,28.727 		"/>
		<polygon fill="none" stroke="#4188A8" stroke-linecap="round" stroke-linejoin="round" stroke-miterlimit="10" points="
			10.273,11.546 18.545,23.636 10.273,28.727 		"/>
	</g>
	<path fill="none" stroke="#1F5C78" stroke-width="2" stroke-linejoin="round" stroke-miterlimit="10" d="M21.079,11.332
		c0.008-0.14,0.012-0.281,0.012-0.423c0-4.218-3.418-7.636-7.636-7.636s-7.637,3.418-7.637,7.636c0,1.789,0.615,3.435,1.646,4.737
		h0.002L2,23.636l8.273,5.091l6.944-4.273l5.146,3.002L30,23v-9.545l-7.636-2.546L21.079,11.332z"/>
</g>
</svg>
</svg>