<?xml version="1.0" encoding="utf-8"?>
<svg>
<!-- NEW -->
<svg version="1.1" id="Layer_1" xmlns="http://www.w3.org/2000/svg" xmlns:xlink="http://www.w3.org/1999/xlink" x="0px" y="0px"
	 width="32px" height="32px" viewBox="0 0 32 32" enable-background="new 0 0 32 32" xml:space="preserve">
<g>
	<polygon fill="#F2F2F2" points="26.888,30 5.112,30 5.112,2 23.777,2 26.888,5.111 	"/>
	<linearGradient id="SVGID_1_" gradientUnits="userSpaceOnUse" x1="16" y1="30" x2="16" y2="2">
		<stop  offset="0" style="stop-color:#B3B3B3"/>
		<stop  offset="1" style="stop-color:#999999"/>
	</linearGradient>
	<path fill="url(#SVGID_1_)" d="M23.363,3l2.525,2.525V29H6.112V3H23.363 M23.777,2H5.112v28h21.776V5.111L23.777,2L23.777,2z"/>
</g>
</svg>
<!-- OPEN -->
<svg version="1.1" id="Layer_1" xmlns="http://www.w3.org/2000/svg" xmlns:xlink="http://www.w3.org/1999/xlink" x="0px" y="0px"
	 width="32px" height="32px" viewBox="0 0 32 32" enable-background="new 0 0 32 32" xml:space="preserve">
<g>
	<polygon fill="#B39700" points="2,9.778 30,9.778 30,8.222 14.444,8.222 11.333,5.111 2,5.111 	"/>
	<rect x="2" y="9.778" fill="#FFD700" width="28" height="17.111"/>
</g>
</svg>
<!-- INSERT -->
<svg version="1.1" id="Layer_1" xmlns="http://www.w3.org/2000/svg" xmlns:xlink="http://www.w3.org/1999/xlink" x="0px" y="0px"
	 width="32px" height="32px" viewBox="0 0 32 32" enable-background="new 0 0 32 32" xml:space="preserve">
<g>
	<polygon fill="#B39700" points="2,9.778 30,9.778 30,8.222 14.444,8.222 11.333,5.111 2,5.111 	"/>
	<rect x="2" y="9.778" fill="#FFD700" width="28" height="17.111"/>
</g>
<g>
	<g>
		<linearGradient id="SVGID_1_" gradientUnits="userSpaceOnUse" x1="21.7578" y1="21.7578" x2="30.2424" y2="30.2424">
			<stop  offset="0" style="stop-color:#60D700"/>
			<stop  offset="1" style="stop-color:#61AE24"/>
		</linearGradient>
		<circle fill="url(#SVGID_1_)" cx="26" cy="26" r="6"/>
	</g>
	<line fill="none" stroke="#FFFFFF" stroke-width="2" stroke-miterlimit="10" x1="22" y1="26" x2="30" y2="26"/>
	<line fill="none" stroke="#FFFFFF" stroke-width="2" stroke-miterlimit="10" x1="26" y1="22" x2="26" y2="30"/>
</g>
</svg>
<!-- SAVE -->
<svg version="1.1" id="Layer_1" xmlns="http://www.w3.org/2000/svg" xmlns:xlink="http://www.w3.org/1999/xlink" x="0px" y="0px"
	 width="32px" height="32px" viewBox="0 0 32 32" enable-background="new 0 0 32 32" xml:space="preserve">
<g>
	<linearGradient id="SVGID_1_" gradientUnits="userSpaceOnUse" x1="1.3525" y1="2.6484" x2="29.3523" y2="30.6482">
		<stop  offset="0" style="stop-color:#4287A8"/>
		<stop  offset="1" style="stop-color:#1C5C78"/>
	</linearGradient>
	<polygon fill="url(#SVGID_1_)" points="30,30 2,30 2,2 27.407,2 30,4.592 	"/>
	<rect x="5.111" y="14.445" fill="#F2F2F2" width="21.777" height="15.555"/>
	<path fill="#F2F2F2" d="M9,2v9.333h14V2H9z M21.185,9.778h-3.11V3.555h3.11V9.778z"/>
</g>
</svg>
<!-- EXPORT -->
<svg version="1.1" id="Layer_1" xmlns="http://www.w3.org/2000/svg" xmlns:xlink="http://www.w3.org/1999/xlink" x="0px" y="0px"
	 width="32px" height="32px" viewBox="0 0 32 32" enable-background="new 0 0 32 32" xml:space="preserve">
<g>
	<linearGradient id="SVGID_1_" gradientUnits="userSpaceOnUse" x1="2" y1="16" x2="30" y2="16">
		<stop  offset="0" style="stop-color:#4287A8"/>
		<stop  offset="1" style="stop-color:#1C5C78"/>
	</linearGradient>
	<polygon fill="url(#SVGID_1_)" points="30,30 2,30 2,2 27.407,2 30,4.592 	"/>
	<rect x="5.111" y="14.445" fill="#F2F2F2" width="21.777" height="15.555"/>
	<path fill="#F2F2F2" d="M9,2v9.333h14V2H9z M21.185,9.778h-3.11V3.555h3.11V9.778z"/>
</g>
<g>
	
		<linearGradient id="SVGID_2_" gradientUnits="userSpaceOnUse" x1="-78.2422" y1="-69.7573" x2="-69.7571" y2="-78.2424" gradientTransform="matrix(0 1 -1 0 -48 100)">
		<stop  offset="0" style="stop-color:#7ABBFF"/>
		<stop  offset="1" style="stop-color:#3366CC"/>
	</linearGradient>
	<circle fill="url(#SVGID_2_)" cx="26" cy="26" r="6"/>
	<polyline fill="none" stroke="#FFFFFF" stroke-width="2" stroke-miterlimit="10" points="29,24.5 26,27.5 23,24.5 	"/>
</g>
</svg>
<!-- PRINT -->
<svg version="1.1" id="Layer_1" xmlns="http://www.w3.org/2000/svg" xmlns:xlink="http://www.w3.org/1999/xlink" x="0px" y="0px"
	 width="32px" height="32px" viewBox="0 0 32 32" enable-background="new 0 0 32 32" xml:space="preserve">
<g>
	<rect x="2" y="16" fill="#E5E5E5" width="28" height="14"/>
	<linearGradient id="SVGID_1_" gradientUnits="userSpaceOnUse" x1="16" y1="16" x2="16" y2="30">
		<stop  offset="0" style="stop-color:#B3B3B3"/>
		<stop  offset="0.0288" style="stop-color:#ACACAC"/>
		<stop  offset="0.156" style="stop-color:#939393"/>
		<stop  offset="0.2974" style="stop-color:#7F7F7F"/>
		<stop  offset="0.4586" style="stop-color:#717171"/>
		<stop  offset="0.6568" style="stop-color:#686868"/>
		<stop  offset="1" style="stop-color:#666666"/>
	</linearGradient>
	<path fill="url(#SVGID_1_)" d="M28,18v10H4V18H28 M30,16H2v14h28V16L30,16z"/>
</g>
<rect x="5" y="25" fill="#666666" width="22" height="2"/>
<circle fill="#FFD700" cx="20" cy="20" r="1"/>
<circle fill="#E528CD" cx="23" cy="20" r="1"/>
<circle fill="#61AE24" cx="26" cy="20" r="1"/>
<g>
	<rect x="7" y="3" fill="#F2F2F2" width="18" height="13"/>
	<linearGradient id="SVGID_2_" gradientUnits="userSpaceOnUse" x1="6" y1="9.5" x2="26" y2="9.5">
		<stop  offset="0" style="stop-color:#B3B3B3"/>
		<stop  offset="1" style="stop-color:#999999"/>
	</linearGradient>
	<path fill="url(#SVGID_2_)" d="M25,3v13H7V3H25 M26,2h-1H7H6v1v13v1h1h18h1v-1V3V2L26,2z"/>
</g>
<polygon fill="#666666" points="12.803,14 18,5 23.197,14 "/>
<polygon fill="#999999" points="8.959,14 13,7 17.041,14 "/>
</svg>
</svg>