<?xml version="1.0" encoding="utf-8"?>
<svg>
<!-- VISUALIZE_DISPLAY -->
<svg version="1.1" id="Layer_1" xmlns="http://www.w3.org/2000/svg" xmlns:xlink="http://www.w3.org/1999/xlink" x="0px" y="0px"
	 width="32px" height="32px" viewBox="0 0 32 32" enable-background="new 0 0 32 32" xml:space="preserve">
<g>
	<g>
		<linearGradient id="SVGID_1_" gradientUnits="userSpaceOnUse" x1="3.1719" y1="3.1719" x2="28.8287" y2="28.8287">
			<stop  offset="0" style="stop-color:#4287A8"/>
			<stop  offset="1" style="stop-color:#1C5C78"/>
		</linearGradient>
		<path fill="url(#SVGID_1_)" d="M2,26c0,2.209,1.791,4,4,4h20c2.209,0,4-1.791,4-4V6c0-2.209-1.791-4-4-4H6C3.791,2,2,3.791,2,6V26
			z"/>
	</g>
	<circle fill="none" stroke="#FFFFFF" stroke-width="2" stroke-miterlimit="10" cx="16" cy="16" r="10"/>
	<line fill="none" stroke="#FFFFFF" stroke-width="2" stroke-miterlimit="10" x1="23" y1="23" x2="26" y2="26"/>
</g>
</svg>
<!-- VISUALIZE_VIEW_DIRECTION -->
<svg version="1.1" id="Layer_1" xmlns="http://www.w3.org/2000/svg" xmlns:xlink="http://www.w3.org/1999/xlink" x="0px" y="0px"
	 width="32px" height="32px" viewBox="0 0 32 32" enable-background="new 0 0 32 32" xml:space="preserve">
<g>
	<g>
		<path fill="#FFFFFF" d="M16,29c-0.126,0-0.252-0.024-0.371-0.071l-12-4.799C3.249,23.978,3,23.61,3,23.201V8.8
			c0-0.409,0.249-0.777,0.629-0.929l12-4.8C15.748,3.024,15.874,3,16,3s0.252,0.024,0.371,0.071l12,4.8
			C28.751,8.023,29,8.391,29,8.8v14.401c0,0.409-0.249,0.777-0.629,0.929l-12,4.799C16.252,28.976,16.126,29,16,29z"/>
		<path fill="#1F5C78" d="M16,4l12,4.8v14.401L16,28L4,23.201V8.8L16,4 M16,2c-0.252,0-0.504,0.048-0.743,0.143l-12,4.8
			C2.498,7.247,2,7.982,2,8.8v14.401c0,0.818,0.498,1.553,1.258,1.857l12,4.799C15.496,29.952,15.748,30,16,30
			s0.504-0.048,0.742-0.143l12-4.799C29.502,24.754,30,24.019,30,23.201V8.8c0-0.818-0.498-1.553-1.257-1.857l-12-4.8
			C16.504,2.048,16.252,2,16,2L16,2z"/>
	</g>
	<polygon fill="#4188A8" points="16,4.4 27.6,9.041 16,13.681 4.4,9.041 	"/>
</g>
</svg>
<!-- VISUALIZE_VIEW_CONTROL -->
<svg version="1.1" id="Layer_1" xmlns="http://www.w3.org/2000/svg" xmlns:xlink="http://www.w3.org/1999/xlink" x="0px" y="0px"
	 width="32px" height="32px" viewBox="0 0 32 32" enable-background="new 0 0 32 32" xml:space="preserve">
<g>
	<g>
		<linearGradient id="SVGID_1_" gradientUnits="userSpaceOnUse" x1="9" y1="7.6006" x2="9" y2="30">
			<stop  offset="0" style="stop-color:#E5E5E5"/>
			<stop  offset="1" style="stop-color:#B3B3B3"/>
		</linearGradient>
		<polygon fill="url(#SVGID_1_)" points="2,7.601 16,13.199 16,30 2,24.399 		"/>
		<linearGradient id="SVGID_2_" gradientUnits="userSpaceOnUse" x1="2" y1="7.5996" x2="30" y2="7.5996">
			<stop  offset="0" style="stop-color:#F2F2F2"/>
			<stop  offset="1" style="stop-color:#CCCCCC"/>
		</linearGradient>
		<polygon fill="url(#SVGID_2_)" points="16,2 30,7.601 16,13.199 2,7.601 		"/>
		<linearGradient id="SVGID_3_" gradientUnits="userSpaceOnUse" x1="23" y1="7.6006" x2="23" y2="30">
			<stop  offset="0" style="stop-color:#CCCCCC"/>
			<stop  offset="1" style="stop-color:#666666"/>
		</linearGradient>
		<polygon fill="url(#SVGID_3_)" points="16,13.199 30,7.601 30,24.399 16,30 		"/>
	</g>
	<g>
		<g>
			<g>
				<path fill="none" stroke="#1F5C78" stroke-width="2" stroke-miterlimit="10" d="M16,6c5.522,0,10,4.478,10,10s-4.478,10-10,10
					S6,21.522,6,16"/>
				<g>
					<polygon fill="#1F5C78" points="17.585,8.324 8.912,6 17.585,3.676 					"/>
				</g>
			</g>
		</g>
	</g>
</g>
</svg>
<!-- VISUALIZE_VIEW_MANAGER -->
<svg version="1.1" id="Layer_1" xmlns="http://www.w3.org/2000/svg" xmlns:xlink="http://www.w3.org/1999/xlink" x="0px" y="0px"
	 width="32px" height="32px" viewBox="0 0 32 32" enable-background="new 0 0 32 32" xml:space="preserve">
<g>
	<g>
		<g>
			<linearGradient id="SVGID_1_" gradientUnits="userSpaceOnUse" x1="3.1729" y1="3.1724" x2="28.829" y2="28.8285">
				<stop  offset="0" style="stop-color:#4287A8"/>
				<stop  offset="1" style="stop-color:#1C5C78"/>
			</linearGradient>
			<path fill="url(#SVGID_1_)" d="M2,26c0,2.209,1.791,4,4,4h20c2.209,0,4-1.791,4-4V6c0-2.209-1.791-4-4-4H6C3.791,2,2,3.791,2,6
				V26z"/>
		</g>
		<g>
			<polygon fill="#FFFFFF" points="23.5,9.732 21.5,11.065 21.5,2.5 25.5,2.5 25.5,11.065 			"/>
			<path fill="#FFFFFF" d="M25,3v7.131l-0.945-0.63L23.5,9.131l-0.555,0.37L22,10.131V3H25 M26,2h-5v10l2.5-1.667L26,12V2L26,2z"/>
		</g>
	</g>
	<g>
		<g>
			<linearGradient id="SVGID_2_" gradientUnits="userSpaceOnUse" x1="21.7568" y1="21.7578" x2="30.2421" y2="30.2431">
				<stop  offset="0" style="stop-color:#60D700"/>
				<stop  offset="1" style="stop-color:#61AE24"/>
			</linearGradient>
			<circle fill="url(#SVGID_2_)" cx="26" cy="26" r="6"/>
		</g>
		<line fill="none" stroke="#FFFFFF" stroke-width="2" stroke-miterlimit="10" x1="22" y1="26" x2="30" y2="26"/>
		<line fill="none" stroke="#FFFFFF" stroke-width="2" stroke-miterlimit="10" x1="26" y1="22" x2="26" y2="30"/>
	</g>
</g>
</svg>
<!-- VISUALIZE_VISIBILITY -->
<svg version="1.1" id="Layer_1" xmlns="http://www.w3.org/2000/svg" xmlns:xlink="http://www.w3.org/1999/xlink" x="0px" y="0px"
	 width="32px" height="32px" viewBox="0 0 32 32" enable-background="new 0 0 32 32" xml:space="preserve">
<g>
	<g>
		<path fill="none" d="M21.08,11.332c0.007-0.14,0.011-0.281,0.011-0.423c0-4.218-3.419-7.636-7.636-7.636
			c-4.219,0-7.637,3.418-7.637,7.636c0,1.789,0.615,3.435,1.646,4.737h0.002L2,23.636l8.273,5.091l6.944-4.273l5.146,3.002L30,23
			v-9.545l-7.637-2.546L21.08,11.332z"/>
	</g>
	<g opacity="0.7">
		
			<radialGradient id="SVGID_1_" cx="-9.2793" cy="9.4092" r="8.1819" fx="-12.6411" fy="5.5358" gradientTransform="matrix(0.9333 0 0 0.9333 22.115 2.1281)" gradientUnits="userSpaceOnUse">
			<stop  offset="0" style="stop-color:#DBEFF7"/>
			<stop  offset="1" style="stop-color:#48677E"/>
		</radialGradient>
		<circle fill="url(#SVGID_1_)" cx="13.455" cy="10.909" r="7.636"/>
		<g>
			<linearGradient id="SVGID_2_" gradientUnits="userSpaceOnUse" x1="18.5449" y1="13.4551" x2="18.5449" y2="27.4551">
				<stop  offset="0.086" style="stop-color:#A0E968"/>
				<stop  offset="0.8656" style="stop-color:#2BB416"/>
			</linearGradient>
			<polyline fill="url(#SVGID_2_)" points="14.727,13.455 14.727,23 22.363,27.455 22.363,16.636 			"/>
			<linearGradient id="SVGID_3_" gradientUnits="userSpaceOnUse" x1="26.1816" y1="27.4551" x2="26.1816" y2="13.4551">
				<stop  offset="0" style="stop-color:#1A9A1A"/>
				<stop  offset="1" style="stop-color:#096209"/>
			</linearGradient>
			<polyline fill="url(#SVGID_3_)" points="30,13.455 30,23 22.363,27.455 22.363,16.636 			"/>
			<linearGradient id="SVGID_4_" gradientUnits="userSpaceOnUse" x1="14.7266" y1="13.7725" x2="30" y2="13.7725">
				<stop  offset="0" style="stop-color:#FFFFFE"/>
				<stop  offset="1" style="stop-color:#BFE890"/>
			</linearGradient>
			<polygon fill="url(#SVGID_4_)" points="14.727,13.455 22.363,16.636 30,13.455 22.363,10.909 			"/>
		</g>
		<g>
			<linearGradient id="SVGID_5_" gradientUnits="userSpaceOnUse" x1="6.1367" y1="11.5459" x2="6.1367" y2="28.7266">
				<stop  offset="0" style="stop-color:#FEF7DC"/>
				<stop  offset="1" style="stop-color:#F9AB1C"/>
			</linearGradient>
			<polyline fill="url(#SVGID_5_)" points="10.273,11.546 2,23.636 10.273,28.727 			"/>
			<polyline fill="#E86207" points="10.273,11.546 18.545,23.636 10.273,28.727 			"/>
		</g>
	</g>
</g>
</svg>
<!-- VISUALIZE_RENDER -->
<svg version="1.1" id="Layer_1" xmlns="http://www.w3.org/2000/svg" xmlns:xlink="http://www.w3.org/1999/xlink" x="0px" y="0px"
	 width="32px" height="32px" viewBox="0 0 32 32" enable-background="new 0 0 32 32" xml:space="preserve">
<g>
	<linearGradient id="SVGID_1_" gradientUnits="userSpaceOnUse" x1="4.4619" y1="19.3467" x2="27.5381" y2="19.3467">
		<stop  offset="0" style="stop-color:#CCCCCC"/>
		<stop  offset="1" style="stop-color:#666666"/>
	</linearGradient>
	<path fill="url(#SVGID_1_)" d="M4.462,23.307C4.462,27.004,9.628,30,16,30c6.374,0,11.538-2.996,11.538-6.693V8.693
		c0,3.695-5.164,6.691-11.538,6.691c-6.372,0-11.538-2.996-11.538-6.691V23.307z"/>
	<linearGradient id="SVGID_2_" gradientUnits="userSpaceOnUse" x1="4.4619" y1="8.6924" x2="27.5381" y2="8.6924">
		<stop  offset="0" style="stop-color:#F2F2F2"/>
		<stop  offset="1" style="stop-color:#CCCCCC"/>
	</linearGradient>
	<ellipse fill="url(#SVGID_2_)" cx="16" cy="8.692" rx="11.538" ry="6.692"/>
	<linearGradient id="SVGID_3_" gradientUnits="userSpaceOnUse" x1="21.7686" y1="8.6929" x2="10.2314" y2="8.6929">
		<stop  offset="0" style="stop-color:#CCCCCC"/>
		<stop  offset="1" style="stop-color:#666666"/>
	</linearGradient>
	<ellipse fill="url(#SVGID_3_)" cx="16" cy="8.693" rx="5.769" ry="3.346"/>
</g>
</svg>
<!-- VISUALIZE_GRAPHIC_EFFECT -->
<svg version="1.1" id="Layer_1" xmlns="http://www.w3.org/2000/svg" xmlns:xlink="http://www.w3.org/1999/xlink" x="0px" y="0px"
	 width="32px" height="32px" viewBox="0 0 32 32" enable-background="new 0 0 32 32" xml:space="preserve">
<g>
	<g>
		
			<radialGradient id="SVGID_1_" cx="5.0146" cy="9.4092" r="8.1814" fx="1.653" fy="5.536" gradientTransform="matrix(0.9333 0 0 0.9333 8.775 2.1281)" gradientUnits="userSpaceOnUse">
			<stop  offset="0" style="stop-color:#F2F2F2"/>
			<stop  offset="1" style="stop-color:#999999"/>
		</radialGradient>
		<circle fill="url(#SVGID_1_)" cx="13.455" cy="10.909" r="7.636"/>
		<g>
			<linearGradient id="SVGID_2_" gradientUnits="userSpaceOnUse" x1="18.5449" y1="13.4551" x2="18.5449" y2="27.4551">
				<stop  offset="0" style="stop-color:#E5E5E5"/>
				<stop  offset="1" style="stop-color:#B3B3B3"/>
			</linearGradient>
			<polyline fill="url(#SVGID_2_)" points="14.727,13.455 14.727,23 22.364,27.455 22.364,16.636 			"/>
			<linearGradient id="SVGID_3_" gradientUnits="userSpaceOnUse" x1="26.1816" y1="13.4551" x2="26.1816" y2="27.4551">
				<stop  offset="0" style="stop-color:#CCCCCC"/>
				<stop  offset="1" style="stop-color:#666666"/>
			</linearGradient>
			<polyline fill="url(#SVGID_3_)" points="30,13.455 30,23 22.364,27.455 22.364,16.636 			"/>
			<linearGradient id="SVGID_4_" gradientUnits="userSpaceOnUse" x1="14.7266" y1="13.7725" x2="30" y2="13.7725">
				<stop  offset="0" style="stop-color:#F2F2F2"/>
				<stop  offset="1" style="stop-color:#CCCCCC"/>
			</linearGradient>
			<polygon fill="url(#SVGID_4_)" points="14.727,13.455 22.364,16.636 30,13.455 22.364,10.909 			"/>
		</g>
		<g>
			<linearGradient id="SVGID_5_" gradientUnits="userSpaceOnUse" x1="6.1367" y1="11.5459" x2="6.1367" y2="28.7266">
				<stop  offset="0" style="stop-color:#F2F2F2"/>
				<stop  offset="1" style="stop-color:#B3B3B3"/>
			</linearGradient>
			<polyline fill="url(#SVGID_5_)" points="10.273,11.546 2,23.636 10.273,28.727 			"/>
			<polyline fill="#999999" points="10.273,11.546 18.545,23.636 10.273,28.727 			"/>
		</g>
	</g>
	<g>
		<circle fill="none" cx="13.455" cy="10.909" r="7.636"/>
		<g>
			
				<line fill="none" stroke="#4188A8" stroke-linecap="round" stroke-linejoin="round" stroke-miterlimit="10" x1="14.727" y1="13.455" x2="14.727" y2="18.056"/>
			<polyline fill="none" stroke="#4188A8" stroke-linecap="round" stroke-linejoin="round" stroke-miterlimit="10" points="
				30,13.455 30,23 22.364,27.455 22.364,16.636 			"/>
			<polygon fill="none" stroke="#4188A8" stroke-linecap="round" stroke-linejoin="round" stroke-miterlimit="10" points="
				14.727,13.455 22.364,16.636 30,13.455 22.364,10.909 			"/>
		</g>
		<g>
			<polyline fill="none" stroke="#4188A8" stroke-linecap="round" stroke-linejoin="round" stroke-miterlimit="10" points="
				10.273,11.546 2,23.636 10.273,28.727 			"/>
			<polygon fill="none" stroke="#4188A8" stroke-linecap="round" stroke-linejoin="round" stroke-miterlimit="10" points="
				10.273,11.546 18.545,23.636 10.273,28.727 			"/>
		</g>
		<path fill="none" stroke="#1F5C78" stroke-width="2" stroke-linejoin="round" stroke-miterlimit="10" d="M21.079,11.332
			c0.008-0.14,0.012-0.281,0.012-0.423c0-4.218-3.418-7.636-7.636-7.636s-7.637,3.418-7.637,7.636c0,1.789,0.615,3.435,1.646,4.737
			h0.002L2,23.636l8.273,5.091l6.944-4.273l5.146,3.002L30,23v-9.545l-7.636-2.546L21.079,11.332z"/>
	</g>
</g>
</svg>
</svg>